<svg width="49" height="42" viewBox="0 0 49 42" fill="none" xmlns="http://www.w3.org/2000/svg">
    <path d="M24.5 41C37.4787 41 48 32.0457 48 21C48 9.9543 37.4787 1 24.5 1C11.5213 1 1 9.9543 1 21C1 32.0457 11.5213 41 24.5 41Z" stroke="#59AC10" stroke-width="1.71429" stroke-linecap="round" stroke-linejoin="round"/>
    <path d="M2.80768 28.6923H9.1346C10.8126 28.6923 12.4219 28.125 13.6084 27.1152C14.7949 26.1054 15.4615 24.7358 15.4615 23.3077V18.6923C15.4615 17.2642 16.1281 15.8946 17.3146 14.8848C18.5012 13.875 20.1104 13.3077 21.7884 13.3077C23.4665 13.3077 25.0757 12.7404 26.2623 11.7306C27.4488 10.7208 28.1154 9.35117 28.1154 7.92309V1.21539" stroke="#59AC10" stroke-width="1.71429" stroke-linecap="round" stroke-linejoin="round"/>
    <path d="M48 20.6923C46.1898 19.893 44.1824 19.4711 42.143 19.4615H34.4423C32.7643 19.4615 31.155 20.0289 29.9685 21.0387C28.7819 22.0485 28.1154 23.4181 28.1154 24.8462C28.1154 26.2743 28.7819 27.6439 29.9685 28.6537C31.155 29.6635 32.7643 30.2308 34.4423 30.2308C35.6409 30.2308 36.7903 30.636 37.6379 31.3573C38.4854 32.0786 38.9615 33.0569 38.9615 34.0769V36.7539" stroke="#59AC10" stroke-width="1.71429" stroke-linecap="round" stroke-linejoin="round"/>
    </svg>
    